<svg xmlns="http://www.w3.org/2000/svg" xmlns:xlink="http://www.w3.org/1999/xlink" width="1920" zoomAndPan="magnify" viewBox="0 0 1440 809.999993" height="1080" preserveAspectRatio="xMidYMid meet" version="1.0"><path fill="#ff5757" d="M 494.910156 261.742188 C 488.683594 259.71875 482.324219 262.117188 481.503906 264.640625 C 480.683594 267.164062 484.421875 272.839844 490.648438 274.863281 C 496.875 276.886719 503.277344 274.363281 504.058594 271.964844 C 504.835938 269.570312 501.140625 263.765625 494.910156 261.742188 Z M 494.910156 261.742188 " fill-opacity="1" fill-rule="nonzero"/><path fill="#ff5757" d="M 491.507812 277.503906 C 487.65625 282.800781 487.972656 289.59375 490.117188 291.152344 C 492.265625 292.710938 498.820312 290.914062 502.667969 285.613281 C 506.519531 280.316406 506.097656 273.449219 504.058594 271.96875 C 502.015625 270.484375 495.355469 272.207031 491.507812 277.503906 Z M 491.507812 277.503906 " fill-opacity="1" fill-rule="nonzero"/><path fill="#ff5757" d="M 505.445312 285.613281 C 509.292969 290.910156 515.847656 292.710938 517.996094 291.152344 C 520.140625 289.59375 520.457031 282.800781 516.605469 277.503906 C 512.757812 272.207031 506.097656 270.484375 504.058594 271.964844 C 502.015625 273.449219 501.59375 280.316406 505.445312 285.613281 Z M 505.445312 285.613281 " fill-opacity="1" fill-rule="nonzero"/><path fill="#ff5757" d="M 517.464844 274.863281 C 523.691406 272.839844 527.429688 267.164062 526.609375 264.640625 C 525.789062 262.117188 519.429688 259.71875 513.199219 261.742188 C 506.972656 263.765625 503.277344 269.570312 504.058594 271.964844 C 504.835938 274.363281 511.238281 276.886719 517.464844 274.863281 Z M 517.464844 274.863281 " fill-opacity="1" fill-rule="nonzero"/><path fill="#ff5757" d="M 510.957031 260.109375 C 510.957031 253.5625 506.710938 248.253906 504.058594 248.253906 C 501.402344 248.253906 497.15625 253.5625 497.15625 260.109375 C 497.15625 266.65625 501.535156 271.964844 504.058594 271.964844 C 506.578125 271.964844 510.957031 266.65625 510.957031 260.109375 Z M 510.957031 260.109375 " fill-opacity="1" fill-rule="nonzero"/><path fill="#ff5757" d="M 571.351562 308.929688 C 571.351562 308.929688 585 318.457031 583.796875 331.027344 C 582.597656 343.59375 567.949219 344.085938 564.734375 336.765625 C 561.515625 329.441406 567.828125 325.277344 570.25 320.261719 C 572.667969 315.25 571.351562 308.929688 571.351562 308.929688 Z M 571.351562 308.929688 " fill-opacity="1" fill-rule="nonzero"/><path fill="#ff5757" d="M 493.425781 291.234375 C 493.425781 291.234375 477.964844 285.078125 476.261719 272.570312 C 474.5625 260.058594 488.710938 256.230469 493.511719 262.625 C 498.3125 269.019531 493.121094 274.515625 491.910156 279.949219 C 490.699219 285.382812 493.425781 291.234375 493.425781 291.234375 Z M 493.425781 291.234375 " fill-opacity="1" fill-rule="nonzero"/><path fill="#ff5757" d="M 557.867188 159.226562 C 557.867188 159.226562 563.121094 175.019531 554.652344 184.382812 C 546.183594 193.746094 534.140625 185.394531 535.933594 177.601562 C 537.726562 169.808594 545.277344 170.234375 550.214844 167.660156 C 555.148438 165.085938 557.867188 159.226562 557.867188 159.226562 Z M 557.867188 159.226562 " fill-opacity="1" fill-rule="nonzero"/><path fill="#ff5757" d="M 453.332031 65.742188 C 453.332031 65.742188 438.226562 58.753906 427.976562 66.125 C 417.722656 73.492188 424.675781 86.394531 432.621094 85.484375 C 440.566406 84.574219 440.984375 77.023438 444.097656 72.40625 C 447.207031 67.789062 453.332031 65.742188 453.332031 65.742188 Z M 453.332031 65.742188 " fill-opacity="1" fill-rule="nonzero"/><path fill="#ff5757" d="M 664.777344 156.796875 C 664.777344 156.796875 653.097656 144.9375 640.910156 148.230469 C 628.71875 151.519531 630.6875 166.042969 638.445312 167.984375 C 646.199219 169.929688 649.25 163.007812 653.789062 159.78125 C 658.324219 156.554688 664.777344 156.796875 664.777344 156.796875 Z M 664.777344 156.796875 " fill-opacity="1" fill-rule="nonzero"/><path fill="#ff5757" d="M 487.894531 114.453125 C 486.503906 108.054688 484.714844 110.167969 482.125 110.730469 C 479.53125 111.292969 475.949219 108.171875 477.339844 114.570312 C 478.730469 120.96875 484.136719 125.226562 486.597656 124.691406 C 489.0625 124.15625 489.285156 120.851562 487.894531 114.453125 Z M 487.894531 114.453125 " fill-opacity="1" fill-rule="nonzero"/><path fill="#ff5757" d="M 475.492188 116.640625 C 468.976562 115.984375 466.601562 113.96875 466.335938 116.609375 C 466.070312 119.246094 471.601562 125.125 478.117188 125.78125 C 484.632812 126.4375 486.347656 127.199219 486.597656 124.691406 C 486.851562 122.183594 482.007812 117.296875 475.492188 116.640625 Z M 475.492188 116.640625 " fill-opacity="1" fill-rule="nonzero"/><path fill="#ff5757" d="M 472.332031 127.476562 C 469.695312 133.472656 470.863281 135.804688 473.292969 136.875 C 475.722656 137.941406 481.136719 134.503906 483.773438 128.511719 C 486.410156 122.515625 488.90625 125.707031 486.597656 124.691406 C 484.292969 123.675781 474.96875 121.484375 472.332031 127.476562 Z M 472.332031 127.476562 " fill-opacity="1" fill-rule="nonzero"/><path fill="#ff5757" d="M 490.109375 132.503906 C 494.996094 136.863281 491.101562 131.433594 492.867188 129.453125 C 494.632812 127.472656 501.75 130.871094 496.863281 126.507812 C 491.976562 122.152344 488.277344 122.8125 486.597656 124.691406 C 484.921875 126.574219 485.226562 128.144531 490.109375 132.503906 Z M 490.109375 132.503906 " fill-opacity="1" fill-rule="nonzero"/><path fill="#ff5757" d="M 494.847656 124 C 500.503906 120.699219 501.875 121.953125 500.535156 119.664062 C 499.199219 117.371094 499.019531 109.460938 493.363281 112.757812 C 487.707031 116.058594 485.328125 122.515625 486.597656 124.691406 C 487.871094 126.871094 489.191406 127.296875 494.847656 124 Z M 494.847656 124 " fill-opacity="1" fill-rule="nonzero"/><path fill="#ff5757" d="M 557.621094 403.664062 C 557.621094 403.664062 571.0625 393.847656 582.5625 399.066406 C 594.058594 404.28125 589.769531 418.296875 581.800781 418.960938 C 573.832031 419.625 571.941406 412.304688 567.984375 408.386719 C 564.027344 404.46875 557.621094 403.664062 557.621094 403.664062 Z M 557.621094 403.664062 " fill-opacity="1" fill-rule="nonzero"/><path fill="#ff5757" d="M 403.046875 474.9375 C 403.046875 474.9375 419.253906 471.160156 427.796875 480.453125 C 436.339844 489.75 426.914062 500.972656 419.320312 498.46875 C 411.726562 495.964844 412.847656 488.488281 410.738281 483.335938 C 408.625 478.183594 403.046875 474.9375 403.046875 474.9375 Z M 403.046875 474.9375 " fill-opacity="1" fill-rule="nonzero"/><path fill="#ff5757" d="M 466.347656 530.769531 C 466.347656 530.769531 480.574219 522.136719 491.585938 528.3125 C 502.597656 534.488281 497.132812 548.085938 489.136719 548.070312 C 481.136719 548.054688 479.878906 540.597656 476.269531 536.359375 C 472.660156 532.121094 466.347656 530.769531 466.347656 530.769531 Z M 466.347656 530.769531 " fill-opacity="1" fill-rule="nonzero"/><path fill="#000000" d="M 330.269531 72.867188 C 338.027344 69.734375 406.800781 70.800781 444.457031 60.878906 C 482.117188 50.953125 501.640625 81.691406 525.269531 90.28125 C 548.898438 98.875 588.046875 90.449219 594.402344 80.089844 C 600.761719 69.730469 597.023438 53.457031 602.039062 52.855469 C 607.050781 52.253906 602.894531 61.296875 607.289062 61.660156 C 611.683594 62.023438 630.023438 42.730469 645.234375 43.210938 C 660.445312 43.6875 666.667969 33.109375 668.949219 35.929688 C 671.226562 38.75 660.308594 44.964844 653.308594 48.242188 C 646.3125 51.519531 641.210938 50.980469 637.160156 53.695312 C 633.109375 56.410156 638.28125 62.578125 645.09375 62.992188 C 651.90625 63.40625 665.15625 73.113281 662.425781 75.039062 C 659.695312 76.964844 648.160156 67.132812 640.0625 69.574219 C 631.96875 72.011719 628.65625 61.453125 619.234375 66.175781 C 609.816406 70.898438 605.921875 80.386719 593.230469 92.132812 C 580.539062 103.882812 563.339844 107.570312 564.433594 109.90625 C 565.523438 112.238281 607.894531 99.207031 624.386719 96.832031 C 640.878906 94.457031 714.929688 104.019531 715.136719 108.371094 C 715.34375 112.722656 688.667969 109.53125 673.375 107.90625 C 658.078125 106.285156 633.605469 101.78125 629.640625 104.144531 C 625.679688 106.507812 642.597656 108.355469 642.0625 111.957031 C 641.523438 115.5625 637.070312 120.605469 644.925781 125.769531 C 652.78125 130.933594 661.78125 136.011719 658.652344 138.773438 C 655.523438 141.535156 638.40625 130.851562 635.875 124.601562 C 633.339844 118.351562 628.347656 111.480469 621.402344 110.847656 C 614.460938 110.214844 598.328125 108.191406 591.0625 112.527344 C 583.800781 116.859375 564.746094 123.445312 555.308594 118.628906 C 545.867188 113.8125 528.394531 101.023438 515.59375 97.582031 C 502.792969 94.136719 487.457031 74.925781 475.730469 71.773438 C 464 68.621094 456.175781 68.511719 454.628906 70.925781 C 453.085938 73.339844 477.578125 104.398438 492.015625 114.59375 C 506.449219 124.785156 541.71875 120.785156 545.496094 130.175781 C 549.273438 139.5625 549.125 162.3125 555.578125 165.625 C 562.03125 168.941406 566.769531 172.382812 564.261719 174.179688 C 561.75 175.972656 546.898438 172.59375 546.089844 163.226562 C 545.277344 153.859375 538.726562 135.125 528.289062 132.679688 C 517.855469 130.230469 481.976562 123.414062 467.117188 107.878906 C 452.253906 92.34375 441.234375 82.125 422.5625 86.097656 C 403.890625 90.070312 383.210938 105.3125 360.226562 105.8125 C 337.246094 106.3125 324.082031 109.015625 320.605469 102.808594 C 317.125 96.601562 322.511719 76 330.269531 72.867188 Z M 330.269531 72.867188 " fill-opacity="1" fill-rule="nonzero"/><path fill="#ff5757" d="M 476.351562 108.675781 C 470.121094 106.652344 463.761719 109.050781 462.941406 111.574219 C 462.121094 114.097656 465.859375 119.773438 472.085938 121.796875 C 478.3125 123.820312 484.714844 121.296875 485.496094 118.898438 C 486.273438 116.503906 482.578125 110.699219 476.351562 108.675781 Z M 476.351562 108.675781 " fill-opacity="1" fill-rule="nonzero"/><path fill="#ff5757" d="M 472.945312 124.4375 C 469.09375 129.734375 469.410156 136.523438 471.558594 138.085938 C 473.703125 139.644531 480.257812 137.84375 484.109375 132.546875 C 487.957031 127.25 487.535156 120.382812 485.496094 118.898438 C 483.457031 117.417969 476.792969 119.140625 472.945312 124.4375 Z M 472.945312 124.4375 " fill-opacity="1" fill-rule="nonzero"/><path fill="#ff5757" d="M 486.882812 132.546875 C 490.730469 137.84375 497.285156 139.644531 499.433594 138.085938 C 501.578125 136.523438 501.894531 129.734375 498.046875 124.4375 C 494.195312 119.140625 487.535156 117.417969 485.496094 118.898438 C 483.457031 120.382812 483.035156 127.25 486.882812 132.546875 Z M 486.882812 132.546875 " fill-opacity="1" fill-rule="nonzero"/><path fill="#ff5757" d="M 498.902344 121.796875 C 505.132812 119.773438 508.867188 114.097656 508.046875 111.574219 C 507.226562 109.046875 500.867188 106.652344 494.636719 108.675781 C 488.410156 110.699219 484.714844 116.5 485.496094 118.898438 C 486.273438 121.296875 492.675781 123.820312 498.902344 121.796875 Z M 498.902344 121.796875 " fill-opacity="1" fill-rule="nonzero"/><path fill="#ff5757" d="M 492.394531 107.042969 C 492.394531 100.496094 488.148438 95.1875 485.496094 95.1875 C 482.839844 95.1875 478.597656 100.496094 478.597656 107.042969 C 478.597656 113.589844 482.972656 118.898438 485.496094 118.898438 C 488.015625 118.898438 492.394531 113.589844 492.394531 107.042969 Z M 492.394531 107.042969 " fill-opacity="1" fill-rule="nonzero"/><path fill="#ff5757" d="M 591.4375 45.503906 C 585.210938 43.480469 578.847656 45.878906 578.03125 48.402344 C 577.210938 50.925781 580.945312 56.601562 587.171875 58.625 C 593.402344 60.648438 599.804688 58.125 600.582031 55.730469 C 601.363281 53.332031 597.667969 47.527344 591.4375 45.503906 Z M 591.4375 45.503906 " fill-opacity="1" fill-rule="nonzero"/><path fill="#ff5757" d="M 588.03125 61.265625 C 584.183594 66.566406 584.496094 73.355469 586.644531 74.914062 C 588.789062 76.472656 595.34375 74.675781 599.195312 69.375 C 603.042969 64.078125 602.621094 57.210938 600.582031 55.730469 C 598.542969 54.25 591.882812 55.96875 588.03125 61.265625 Z M 588.03125 61.265625 " fill-opacity="1" fill-rule="nonzero"/><path fill="#ff5757" d="M 601.972656 69.375 C 605.820312 74.675781 612.375 76.476562 614.519531 74.914062 C 616.667969 73.355469 616.984375 66.566406 613.132812 61.265625 C 609.285156 55.96875 602.621094 54.246094 600.582031 55.730469 C 598.542969 57.210938 598.121094 64.078125 601.972656 69.375 Z M 601.972656 69.375 " fill-opacity="1" fill-rule="nonzero"/><path fill="#ff5757" d="M 613.992188 58.625 C 620.21875 56.601562 623.957031 50.925781 623.136719 48.402344 C 622.316406 45.878906 615.953125 43.480469 609.726562 45.503906 C 603.5 47.527344 599.804688 53.332031 600.582031 55.730469 C 601.363281 58.128906 607.761719 60.652344 613.992188 58.625 Z M 613.992188 58.625 " fill-opacity="1" fill-rule="nonzero"/><path fill="#ff5757" d="M 607.480469 43.875 C 607.480469 37.324219 603.238281 32.015625 600.582031 32.015625 C 597.929688 32.015625 593.683594 37.324219 593.683594 43.875 C 593.683594 50.421875 598.0625 55.730469 600.582031 55.730469 C 603.105469 55.730469 607.480469 50.421875 607.480469 43.875 Z M 607.480469 43.875 " fill-opacity="1" fill-rule="nonzero"/><path fill="#ff5757" d="M 408.554688 48.289062 C 402.328125 46.265625 395.96875 48.664062 395.148438 51.1875 C 394.328125 53.710938 398.066406 59.386719 404.292969 61.410156 C 410.519531 63.433594 416.921875 60.914062 417.703125 58.515625 C 418.480469 56.117188 414.785156 50.3125 408.554688 48.289062 Z M 408.554688 48.289062 " fill-opacity="1" fill-rule="nonzero"/><path fill="#ff5757" d="M 405.152344 64.050781 C 401.300781 69.351562 401.617188 76.140625 403.761719 77.699219 C 405.910156 79.261719 412.464844 77.460938 416.3125 72.164062 C 420.164062 66.867188 419.742188 59.996094 417.703125 58.515625 C 415.660156 57.035156 409 58.753906 405.152344 64.050781 Z M 405.152344 64.050781 " fill-opacity="1" fill-rule="nonzero"/><path fill="#ff5757" d="M 419.089844 72.160156 C 422.9375 77.460938 429.492188 79.261719 431.640625 77.699219 C 433.785156 76.140625 434.101562 69.351562 430.25 64.050781 C 426.402344 58.753906 419.742188 57.03125 417.703125 58.515625 C 415.660156 59.996094 415.238281 66.863281 419.089844 72.160156 Z M 419.089844 72.160156 " fill-opacity="1" fill-rule="nonzero"/><path fill="#ff5757" d="M 431.109375 61.410156 C 437.335938 59.386719 441.074219 53.710938 440.253906 51.1875 C 439.433594 48.664062 433.074219 46.265625 426.84375 48.289062 C 420.617188 50.3125 416.921875 56.117188 417.703125 58.515625 C 418.480469 60.914062 424.882812 63.433594 431.109375 61.410156 Z M 431.109375 61.410156 " fill-opacity="1" fill-rule="nonzero"/><path fill="#ff5757" d="M 424.601562 46.65625 C 424.601562 40.109375 420.355469 34.800781 417.703125 34.800781 C 415.046875 34.800781 410.800781 40.109375 410.800781 46.65625 C 410.800781 53.207031 415.179688 58.515625 417.703125 58.515625 C 420.222656 58.515625 424.601562 53.207031 424.601562 46.65625 Z M 424.601562 46.65625 " fill-opacity="1" fill-rule="nonzero"/><path fill="#ff5757" d="M 366.113281 95.183594 C 361.851562 93.796875 357.5 95.4375 356.9375 97.164062 C 356.375 98.894531 358.933594 102.777344 363.195312 104.164062 C 367.457031 105.546875 371.839844 103.820312 372.371094 102.179688 C 372.90625 100.539062 370.375 96.566406 366.113281 95.183594 Z M 366.113281 95.183594 " fill-opacity="1" fill-rule="nonzero"/><path fill="#ff5757" d="M 363.78125 105.96875 C 361.148438 109.59375 361.363281 114.242188 362.832031 115.3125 C 364.300781 116.378906 368.789062 115.144531 371.421875 111.519531 C 374.054688 107.894531 373.765625 103.195312 372.371094 102.179688 C 370.976562 101.167969 366.417969 102.34375 363.78125 105.96875 Z M 363.78125 105.96875 " fill-opacity="1" fill-rule="nonzero"/><path fill="#ff5757" d="M 373.320312 111.519531 C 375.953125 115.144531 380.441406 116.375 381.910156 115.308594 C 383.378906 114.242188 383.59375 109.59375 380.960938 105.96875 C 378.328125 102.34375 373.765625 101.167969 372.371094 102.179688 C 370.976562 103.195312 370.6875 107.894531 373.320312 111.519531 Z M 373.320312 111.519531 " fill-opacity="1" fill-rule="nonzero"/><path fill="#ff5757" d="M 381.546875 104.164062 C 385.808594 102.777344 388.367188 98.894531 387.804688 97.164062 C 387.246094 95.4375 382.890625 93.796875 378.628906 95.183594 C 374.367188 96.566406 371.835938 100.539062 372.371094 102.179688 C 372.90625 103.820312 377.285156 105.546875 381.546875 104.164062 Z M 381.546875 104.164062 " fill-opacity="1" fill-rule="nonzero"/><path fill="#ff5757" d="M 377.09375 94.066406 C 377.09375 89.585938 374.1875 85.953125 372.371094 85.953125 C 370.554688 85.953125 367.648438 89.585938 367.648438 94.066406 C 367.648438 98.546875 370.644531 102.179688 372.371094 102.179688 C 374.097656 102.179688 377.09375 98.546875 377.09375 94.066406 Z M 377.09375 94.066406 " fill-opacity="1" fill-rule="nonzero"/><path fill="#ff5757" d="M 535.183594 84.882812 C 530.921875 83.496094 526.566406 85.136719 526.007812 86.863281 C 525.445312 88.589844 528.003906 92.476562 532.265625 93.863281 C 536.527344 95.246094 540.90625 93.519531 541.441406 91.878906 C 541.972656 90.238281 539.445312 86.265625 535.183594 84.882812 Z M 535.183594 84.882812 " fill-opacity="1" fill-rule="nonzero"/><path fill="#ff5757" d="M 532.851562 95.667969 C 530.21875 99.292969 530.433594 103.941406 531.902344 105.007812 C 533.371094 106.078125 537.855469 104.84375 540.492188 101.21875 C 543.125 97.59375 542.835938 92.894531 541.441406 91.878906 C 540.042969 90.867188 535.484375 92.042969 532.851562 95.667969 Z M 532.851562 95.667969 " fill-opacity="1" fill-rule="nonzero"/><path fill="#ff5757" d="M 542.390625 101.21875 C 545.023438 104.84375 549.511719 106.074219 550.980469 105.007812 C 552.449219 103.941406 552.664062 99.292969 550.03125 95.667969 C 547.394531 92.042969 542.835938 90.867188 541.441406 91.878906 C 540.042969 92.894531 539.757812 97.59375 542.390625 101.21875 Z M 542.390625 101.21875 " fill-opacity="1" fill-rule="nonzero"/><path fill="#ff5757" d="M 550.617188 93.863281 C 554.878906 92.476562 557.4375 88.589844 556.875 86.863281 C 556.3125 85.136719 551.960938 83.496094 547.699219 84.882812 C 543.4375 86.265625 540.90625 90.238281 541.441406 91.878906 C 541.972656 93.519531 546.355469 95.246094 550.617188 93.863281 Z M 550.617188 93.863281 " fill-opacity="1" fill-rule="nonzero"/><path fill="#ff5757" d="M 546.160156 83.765625 C 546.160156 79.285156 543.257812 75.648438 541.441406 75.648438 C 539.625 75.648438 536.71875 79.285156 536.71875 83.765625 C 536.71875 88.246094 539.714844 91.878906 541.441406 91.878906 C 543.164062 91.878906 546.160156 88.246094 546.160156 83.765625 Z M 546.160156 83.765625 " fill-opacity="1" fill-rule="nonzero"/><path fill="#ff5757" d="M 687.800781 92.582031 C 681.574219 90.558594 675.214844 92.957031 674.394531 95.480469 C 673.574219 98.003906 677.308594 103.683594 683.539062 105.707031 C 689.765625 107.730469 696.167969 105.207031 696.945312 102.808594 C 697.726562 100.410156 694.03125 94.609375 687.800781 92.582031 Z M 687.800781 92.582031 " fill-opacity="1" fill-rule="nonzero"/><path fill="#ff5757" d="M 684.394531 108.347656 C 680.546875 113.644531 680.859375 120.433594 683.007812 121.996094 C 685.152344 123.554688 691.710938 121.753906 695.558594 116.457031 C 699.40625 111.160156 698.984375 104.292969 696.945312 102.808594 C 694.90625 101.328125 688.246094 103.050781 684.394531 108.347656 Z M 684.394531 108.347656 " fill-opacity="1" fill-rule="nonzero"/><path fill="#ff5757" d="M 698.332031 116.457031 C 702.183594 121.753906 708.738281 123.554688 710.882812 121.996094 C 713.03125 120.433594 713.34375 113.644531 709.496094 108.347656 C 705.648438 103.050781 698.984375 101.328125 696.945312 102.808594 C 694.90625 104.292969 694.484375 111.160156 698.332031 116.457031 Z M 698.332031 116.457031 " fill-opacity="1" fill-rule="nonzero"/><path fill="#ff5757" d="M 710.355469 105.707031 C 716.582031 103.683594 720.320312 98.007812 719.5 95.484375 C 718.679688 92.957031 712.316406 90.5625 706.089844 92.585938 C 699.863281 94.609375 696.167969 100.410156 696.945312 102.808594 C 697.726562 105.207031 704.125 107.730469 710.355469 105.707031 Z M 710.355469 105.707031 " fill-opacity="1" fill-rule="nonzero"/><path fill="#ff5757" d="M 703.84375 90.953125 C 703.84375 84.40625 699.597656 79.097656 696.945312 79.097656 C 694.292969 79.097656 690.046875 84.40625 690.046875 90.953125 C 690.046875 97.5 694.425781 102.808594 696.945312 102.808594 C 699.464844 102.808594 703.84375 97.5 703.84375 90.953125 Z M 703.84375 90.953125 " fill-opacity="1" fill-rule="nonzero"/><path fill="#ff5757" d="M 652.953125 120.273438 C 661.144531 119.207031 667.089844 113.03125 666.65625 109.714844 C 666.226562 106.394531 658.894531 101.953125 650.703125 103.019531 C 642.515625 104.085938 636.589844 110.425781 637.003906 113.578125 C 637.414062 116.730469 644.765625 121.339844 652.953125 120.273438 Z M 652.953125 120.273438 " fill-opacity="1" fill-rule="nonzero"/><path fill="#ff5757" d="M 653.523438 108.453125 C 659.113281 102.371094 659.699219 93.820312 657.234375 91.554688 C 654.769531 89.292969 646.296875 90.597656 640.710938 96.679688 C 635.125 102.761719 634.660156 111.425781 637.003906 113.578125 C 639.34375 115.730469 647.9375 114.535156 653.523438 108.453125 Z M 653.523438 108.453125 " fill-opacity="1" fill-rule="nonzero"/><path fill="#ff5757" d="M 646.363281 99.03125 C 646.734375 90.78125 641.6875 83.851562 638.34375 83.703125 C 635.003906 83.550781 629.355469 90 628.984375 98.25 C 628.613281 106.5 633.824219 113.433594 637.003906 113.578125 C 640.175781 113.71875 645.992188 107.28125 646.363281 99.03125 Z M 646.363281 99.03125 " fill-opacity="1" fill-rule="nonzero"/><path fill="#ff5757" d="M 672.140625 44.195312 C 676.070312 43.679688 678.925781 40.71875 678.71875 39.125 C 678.507812 37.53125 674.988281 35.398438 671.058594 35.910156 C 667.125 36.421875 664.285156 39.464844 664.480469 40.980469 C 664.675781 42.492188 668.207031 44.707031 672.140625 44.195312 Z M 672.140625 44.195312 " fill-opacity="1" fill-rule="nonzero"/><path fill="#ff5757" d="M 672.414062 38.519531 C 675.097656 35.597656 675.378906 31.492188 674.195312 30.40625 C 673.011719 29.316406 668.945312 29.949219 666.261719 32.867188 C 663.578125 35.785156 663.355469 39.945312 664.480469 40.980469 C 665.605469 42.011719 669.730469 41.4375 672.414062 38.519531 Z M 672.414062 38.519531 " fill-opacity="1" fill-rule="nonzero"/><path fill="#ff5757" d="M 668.976562 33.996094 C 669.152344 30.035156 666.730469 26.707031 665.125 26.636719 C 663.519531 26.5625 660.808594 29.660156 660.628906 33.621094 C 660.453125 37.582031 662.953125 40.910156 664.480469 40.980469 C 666.003906 41.046875 668.796875 37.957031 668.976562 33.996094 Z M 668.976562 33.996094 " fill-opacity="1" fill-rule="nonzero"/><path fill="#ff5757" d="M 501.90625 73.9375 C 510.097656 72.871094 516.042969 66.695312 515.613281 63.378906 C 515.179688 60.058594 507.847656 55.617188 499.660156 56.683594 C 491.472656 57.75 485.546875 64.089844 485.957031 67.242188 C 486.367188 70.394531 493.71875 75.003906 501.90625 73.9375 Z M 501.90625 73.9375 " fill-opacity="1" fill-rule="nonzero"/><path fill="#ff5757" d="M 502.480469 62.117188 C 508.066406 56.035156 508.652344 47.484375 506.1875 45.222656 C 503.726562 42.957031 495.253906 44.265625 489.664062 50.34375 C 484.078125 56.425781 483.613281 65.09375 485.957031 67.242188 C 488.296875 69.394531 496.890625 68.199219 502.480469 62.117188 Z M 502.480469 62.117188 " fill-opacity="1" fill-rule="nonzero"/><path fill="#ff5757" d="M 495.320312 52.695312 C 495.691406 44.445312 490.644531 37.519531 487.300781 37.367188 C 483.957031 37.21875 478.308594 43.664062 477.9375 51.914062 C 477.566406 60.164062 482.78125 67.101562 485.957031 67.242188 C 489.132812 67.386719 494.949219 60.945312 495.320312 52.695312 Z M 495.320312 52.695312 " fill-opacity="1" fill-rule="nonzero"/><path fill="#ff5757" d="M 570.675781 162.484375 C 563.40625 163.945312 558.132812 168.21875 558.898438 172.03125 C 559.664062 175.84375 566.179688 177.75 573.453125 176.289062 C 580.722656 174.828125 585.230469 166.742188 585.230469 166.742188 C 585.230469 166.742188 577.949219 161.023438 570.675781 162.484375 Z M 570.675781 162.484375 " fill-opacity="1" fill-rule="nonzero"/><path fill="#ff5757" d="M 668.921875 128.652344 C 661.546875 129.457031 655.914062 133.242188 656.335938 137.109375 C 656.757812 140.976562 663.078125 143.457031 670.453125 142.648438 C 677.824219 141.84375 683.035156 134.191406 683.035156 134.191406 C 683.035156 134.191406 676.292969 127.84375 668.921875 128.652344 Z M 668.921875 128.652344 " fill-opacity="1" fill-rule="nonzero"/><path fill="#ff5757" d="M 664.8125 65.34375 C 659.441406 65.929688 655.339844 68.691406 655.648438 71.503906 C 655.953125 74.320312 660.558594 76.125 665.925781 75.539062 C 671.296875 74.949219 675.09375 69.378906 675.09375 69.378906 C 675.09375 69.378906 670.183594 64.757812 664.8125 65.34375 Z M 664.8125 65.34375 " fill-opacity="1" fill-rule="nonzero"/><path fill="#ffffff" d="M 847.328125 773.960938 C 800.375 773.960938 780.039062 757.09375 786.261719 673.347656 C 792.480469 589.601562 806.601562 542.914062 825.1875 550.261719 C 843.773438 557.609375 920.414062 579.132812 920.414062 579.132812 C 920.414062 579.132812 973.917969 485.414062 998.734375 502.496094 C 1023.546875 519.574219 1016.566406 672.765625 954.339844 696.609375 C 892.109375 720.457031 894.277344 773.960938 847.328125 773.960938 Z M 847.328125 773.960938 " fill-opacity="1" fill-rule="nonzero"/><path fill="#ff5757" d="M 950.390625 659.285156 C 965.660156 654.324219 970.226562 644.953125 970.25 633.867188 C 967.601562 634.152344 963.742188 632.347656 963.152344 630.527344 C 962.558594 628.707031 964.617188 624.976562 966.929688 623.652344 C 960.390625 614.695312 951.191406 609.796875 935.921875 614.761719 C 932.5 615.871094 929.257812 617.839844 926.246094 620.292969 C 927.648438 616.671875 928.523438 612.976562 928.523438 609.382812 C 928.523438 593.328125 921.019531 586.089844 910.484375 582.640625 C 909.9375 585.25 907.023438 588.359375 905.113281 588.359375 C 903.199219 588.359375 900.285156 585.25 899.742188 582.640625 C 889.203125 586.089844 881.703125 593.328125 881.703125 609.382812 C 881.703125 612.976562 882.578125 616.671875 883.980469 620.292969 C 880.96875 617.839844 877.722656 615.871094 874.300781 614.761719 C 859.035156 609.796875 849.832031 614.695312 843.296875 623.652344 C 845.605469 624.976562 847.664062 628.707031 847.074219 630.527344 C 846.480469 632.347656 842.625 634.152344 839.972656 633.867188 C 840 644.953125 844.566406 654.324219 859.832031 659.285156 C 863.253906 660.398438 867.03125 660.710938 870.910156 660.496094 C 867.648438 662.601562 864.773438 665.078125 862.660156 667.988281 C 853.222656 680.976562 855.039062 691.238281 861.535156 700.222656 C 863.511719 698.433594 867.695312 697.632812 869.242188 698.757812 C 870.789062 699.878906 871.316406 704.109375 870.226562 706.539062 C 880.777344 709.941406 891.101562 708.492188 900.539062 695.507812 C 902.652344 692.597656 904.117188 689.101562 905.113281 685.34375 C 906.105469 689.101562 907.574219 692.597656 909.6875 695.507812 C 919.121094 708.496094 929.445312 709.941406 939.996094 706.539062 C 938.90625 704.109375 939.433594 699.878906 940.984375 698.757812 C 942.53125 697.632812 946.710938 698.433594 948.6875 700.222656 C 955.183594 691.238281 957 680.976562 947.5625 667.988281 C 945.449219 665.078125 942.578125 662.601562 939.3125 660.496094 C 943.191406 660.710938 946.972656 660.398438 950.390625 659.285156 Z M 950.390625 659.285156 " fill-opacity="1" fill-rule="nonzero"/><path fill="#ff5757" d="M 868.890625 745.355469 C 868.871094 756.441406 864.304688 765.816406 849.035156 770.777344 C 845.613281 771.882812 841.832031 772.199219 837.957031 771.984375 C 838.863281 772.566406 839.738281 773.175781 840.574219 773.824219 C 804.277344 772.371094 785.824219 757.945312 785.183594 703.09375 C 788.390625 698.65625 792.988281 695.894531 798.382812 694.128906 C 798.929688 696.738281 801.847656 699.851562 803.757812 699.851562 C 805.671875 699.851562 808.582031 696.738281 809.128906 694.128906 C 819.660156 697.578125 827.167969 704.816406 827.167969 720.871094 C 827.167969 724.464844 826.289062 728.160156 824.886719 731.785156 C 827.898438 729.332031 831.148438 727.363281 834.5625 726.246094 C 849.832031 721.285156 859.035156 726.183594 865.570312 735.140625 C 863.261719 736.464844 861.207031 740.195312 861.796875 742.015625 C 862.386719 743.832031 866.246094 745.644531 868.890625 745.355469 Z M 868.890625 745.355469 " fill-opacity="1" fill-rule="nonzero"/><path fill="#000000" d="M 834.53125 658.75 C 834.53125 602.347656 830.546875 556.621094 819.082031 556.621094 C 807.617188 556.621094 790.527344 635.554688 790.527344 691.957031 C 790.527344 748.363281 807.617188 760.878906 819.082031 760.878906 C 830.546875 760.878906 834.53125 715.152344 834.53125 658.75 Z M 834.53125 658.75 " fill-opacity="1" fill-rule="nonzero"/><path fill="#f4baa8" d="M 833.84375 621.726562 C 827.089844 619.679688 813.125 614.179688 799.261719 609.210938 C 788.308594 605.292969 777.417969 601.703125 770.171875 600.414062 C 751.367188 597.0625 740.121094 597.988281 733.53125 592.222656 C 726.9375 586.449219 729.863281 560.082031 735.097656 555.804688 C 740.332031 551.519531 745.550781 553.882812 745.550781 553.882812 C 745.550781 553.882812 741.480469 520.289062 750.496094 519.167969 C 759.511719 518.054688 756.015625 543.742188 765.03125 553.789062 C 774.046875 563.839844 770.847656 564.121094 780.734375 567.746094 C 785.921875 569.648438 798.007812 570.289062 809.375 570.914062 C 816.816406 571.324219 823.953125 571.71875 828.648438 572.460938 C 831.359375 584.058594 833.011719 601.296875 833.84375 621.726562 Z M 833.84375 621.726562 " fill-opacity="1" fill-rule="nonzero"/><path fill="#ffffff" d="M 1035.179688 257.101562 C 1035.179688 182.09375 904.878906 121.289062 744.148438 121.289062 C 583.417969 121.289062 453.117188 182.09375 453.117188 257.101562 C 453.117188 332.109375 583.417969 392.917969 744.148438 392.917969 C 904.878906 392.917969 1035.179688 332.109375 1035.179688 257.101562 Z M 1035.179688 257.101562 " fill-opacity="1" fill-rule="nonzero"/><path stroke-linecap="round" transform="matrix(0.748087, 0, 0, 0.748087, 773.041719, 282.395279)" fill="none" stroke-linejoin="round" d="M 38.62624 144.16363 C 38.62624 144.16363 -38.628122 -144.165628 -38.628122 -144.165628 " stroke="#ece6dd" stroke-width="3" stroke-opacity="1" stroke-miterlimit="4"/><path stroke-linecap="round" transform="matrix(0.748087, 0, 0, 0.748087, 803.755934, 277.792302)" fill="none" stroke-linejoin="round" d="M 79.684942 138.014412 C 79.684942 138.014412 -79.685141 -138.01263 -79.685141 -138.01263 " stroke="#ece6dd" stroke-width="3" stroke-opacity="1" stroke-miterlimit="4"/><path stroke-linecap="round" transform="matrix(0.748087, 0, 0, 0.748087, 837.512604, 267.909323)" fill="none" stroke-linejoin="round" d="M 124.806776 124.79863 C 124.806776 124.79863 -124.809143 -124.801625 -124.809143 -124.801625 " stroke="#ece6dd" stroke-width="3" stroke-opacity="1" stroke-miterlimit="4"/><path stroke-linecap="round" transform="matrix(0.748087, 0, 0, 0.748087, 871.941058, 248.325915)" fill="none" stroke-linejoin="round" d="M 170.826856 98.624322 C 170.826856 98.624322 -170.831148 -98.623635 -170.831148 -98.623635 " stroke="#ece6dd" stroke-width="3" stroke-opacity="1" stroke-miterlimit="4"/><path stroke-linecap="round" transform="matrix(0.748087, 0, 0, 0.748087, 889.574193, 213.5137)" fill="none" stroke-linejoin="round" d="M 194.40219 52.088565 C 194.40219 52.088565 -194.402123 -52.088642 -194.402123 -52.088642 " stroke="#ece6dd" stroke-width="3" stroke-opacity="1" stroke-miterlimit="4"/><path stroke-linecap="round" transform="matrix(0.748087, 0, 0, 0.748087, 315.404873, 0.956811)" fill="none" stroke-linejoin="round" d="M 882.074864 232.04535 C 882.074864 232.04535 573.114854 232.04535 573.114854 232.04535 " stroke="#ece6dd" stroke-width="3" stroke-opacity="1" stroke-miterlimit="4"/><path stroke-linecap="round" transform="matrix(0.748087, 0, 0, 0.748087, 813.214717, 156.039694)" fill="none" stroke-linejoin="round" d="M 92.329445 -24.741038 C 92.329445 -24.741038 -92.329107 24.73935 -92.329107 24.73935 " stroke="#ece6dd" stroke-width="3" stroke-opacity="1" stroke-miterlimit="4"/><path stroke-linecap="round" transform="matrix(0.748087, 0, 0, 0.748087, 785.456223, 150.694613)" fill="none" stroke-linejoin="round" d="M 55.220066 -31.887703 C 55.220066 -31.887703 -55.223126 31.88435 -55.223126 31.88435 " stroke="#ece6dd" stroke-width="3" stroke-opacity="1" stroke-miterlimit="4"/><path stroke-linecap="round" transform="matrix(0.748087, 0, 0, 0.748087, 769.726959, 148.966537)" fill="none" stroke-linejoin="round" d="M 34.196077 -34.193649 C 34.196077 -34.193649 -34.197139 34.194345 -34.197139 34.194345 " stroke="#ece6dd" stroke-width="3" stroke-opacity="1" stroke-miterlimit="4"/><path stroke-linecap="round" transform="matrix(0.748087, 0, 0, 0.748087, 759.308416, 148.284269)" fill="none" stroke-linejoin="round" d="M 20.270696 -35.109212 C 20.270696 -35.109212 -20.270221 35.106361 -20.270221 35.106361 " stroke="#ece6dd" stroke-width="3" stroke-opacity="1" stroke-miterlimit="4"/><path stroke-linecap="round" transform="matrix(0.748087, 0, 0, 0.748087, 751.25968, 148.001497)" fill="none" stroke-linejoin="round" d="M 9.511356 -35.488357 C 9.511356 -35.488357 -9.511128 35.484356 -9.511128 35.484356 " stroke="#ece6dd" stroke-width="3" stroke-opacity="1" stroke-miterlimit="4"/><path stroke-linecap="round" transform="matrix(0.748087, 0, 0, 0.748087, 315.404873, 0.956811)" fill="none" stroke-linejoin="round" d="M 573.114854 232.04535 C 573.114854 232.04535 573.114854 160.858549 573.114854 160.858549 " stroke="#ece6dd" stroke-width="3" stroke-opacity="1" stroke-miterlimit="4"/><path stroke-linecap="round" transform="matrix(0.748087, 0, 0, 0.748087, 737.031833, 148.001497)" fill="none" stroke-linejoin="round" d="M 9.507851 35.484356 C 9.507851 35.484356 -9.50941 -35.483135 -9.50941 -35.483135 " stroke="#ece6dd" stroke-width="3" stroke-opacity="1" stroke-miterlimit="4"/><path stroke-linecap="round" transform="matrix(0.748087, 0, 0, 0.748087, 728.982402, 148.284269)" fill="none" stroke-linejoin="round" d="M 20.267875 35.106361 C 20.267875 35.106361 -20.267821 -35.109212 -20.267821 -35.109212 " stroke="#ece6dd" stroke-width="3" stroke-opacity="1" stroke-miterlimit="4"/><path stroke-linecap="round" transform="matrix(0.748087, 0, 0, 0.748087, 718.56453, 148.966537)" fill="none" stroke-linejoin="round" d="M 34.193894 34.194345 C 34.193894 34.194345 -34.1941 -34.193649 -34.1941 -34.193649 " stroke="#ece6dd" stroke-width="3" stroke-opacity="1" stroke-miterlimit="4"/><path stroke-linecap="round" transform="matrix(0.748087, 0, 0, 0.748087, 702.835291, 150.693864)" fill="none" stroke-linejoin="round" d="M 55.219849 31.885351 C 55.219849 31.885351 -55.223342 -31.886702 -55.223342 -31.886702 " stroke="#ece6dd" stroke-width="3" stroke-opacity="1" stroke-miterlimit="4"/><path stroke-linecap="round" transform="matrix(0.748087, 0, 0, 0.748087, 675.076796, 156.039694)" fill="none" stroke-linejoin="round" d="M 92.32583 24.73935 C 92.32583 24.73935 -92.327499 -24.741038 -92.327499 -24.741038 " stroke="#ece6dd" stroke-width="3" stroke-opacity="1" stroke-miterlimit="4"/><path stroke-linecap="round" transform="matrix(0.748087, 0, 0, 0.748087, 315.404873, 0.956811)" fill="none" stroke-linejoin="round" d="M 573.114854 232.04535 C 573.114854 232.04535 264.160065 232.04535 264.160065 232.04535 " stroke="#ece6dd" stroke-width="3" stroke-opacity="1" stroke-miterlimit="4"/><path stroke-linecap="round" transform="matrix(0.748087, 0, 0, 0.748087, 598.716528, 213.512954)" fill="none" stroke-linejoin="round" d="M 194.399905 -52.087644 C 194.399905 -52.087644 -194.404408 52.089563 -194.404408 52.089563 " stroke="#ece6dd" stroke-width="3" stroke-opacity="1" stroke-miterlimit="4"/><path stroke-linecap="round" transform="matrix(0.748087, 0, 0, 0.748087, 616.354967, 248.330398)" fill="none" stroke-linejoin="round" d="M 170.82184 -98.629628 C 170.82184 -98.629628 -170.820499 98.628773 -170.820499 98.628773 " stroke="#ece6dd" stroke-width="3" stroke-opacity="1" stroke-miterlimit="4"/><path stroke-linecap="round" transform="matrix(0.748087, 0, 0, 0.748087, 650.778141, 267.914567)" fill="none" stroke-linejoin="round" d="M 124.806893 -124.808635 C 124.806893 -124.808635 -124.809026 124.807285 -124.809026 124.807285 " stroke="#ece6dd" stroke-width="3" stroke-opacity="1" stroke-miterlimit="4"/><path stroke-linecap="round" transform="matrix(0.748087, 0, 0, 0.748087, 684.534812, 277.792302)" fill="none" stroke-linejoin="round" d="M 79.682891 -138.01263 C 79.682891 -138.01263 -79.681971 138.014412 -79.681971 138.014412 " stroke="#ece6dd" stroke-width="3" stroke-opacity="1" stroke-miterlimit="4"/><path stroke-linecap="round" transform="matrix(0.748087, 0, 0, 0.748087, 715.24977, 282.395279)" fill="none" stroke-linejoin="round" d="M 38.624877 -144.165628 C 38.624877 -144.165628 -38.624263 144.16363 -38.624263 144.16363 " stroke="#ece6dd" stroke-width="3" stroke-opacity="1" stroke-miterlimit="4"/><path stroke-linecap="round" transform="matrix(0.748087, 0, 0, 0.748087, 315.404873, 0.956811)" fill="none" stroke-linejoin="round" d="M 573.114854 523.956662 C 573.114854 523.956662 573.114854 232.04535 573.114854 232.04535 " stroke="#ece6dd" stroke-width="3" stroke-opacity="1" stroke-miterlimit="4"/><path stroke-linecap="round" transform="matrix(0.748087, 0, 0, 0.748087, 315.404873, 0.956811)" fill="none" stroke-linejoin="round" d="M 573.114854 232.04535 C 573.114854 232.04535 573.114854 988.8248 573.114854 988.8248 " stroke="#000000" stroke-width="20" stroke-opacity="1" stroke-miterlimit="4"/><path fill="#000000" d="M 764.789062 174.546875 C 764.789062 169.558594 755.546875 165.515625 744.148438 165.515625 C 732.75 165.515625 723.507812 169.558594 723.507812 174.546875 C 723.507812 179.535156 732.75 183.578125 744.148438 183.578125 C 755.546875 183.578125 764.789062 179.535156 764.789062 174.546875 Z M 764.789062 174.546875 " fill-opacity="1" fill-rule="nonzero"/><path stroke-linecap="round" transform="matrix(0.748087, 0, 0, 0.748087, 315.404873, 0.956811)" fill="none" stroke-linejoin="round" d="M 573.114854 178.810593 C 573.114854 178.810593 573.114854 285.269663 573.114854 285.269663 C 573.114854 285.269663 573.114854 336.222557 573.114854 336.222557 " stroke="#ff5757" stroke-width="3" stroke-opacity="1" stroke-miterlimit="4"/><path stroke-linecap="round" transform="matrix(0.748087, 0, 0, 0.748087, 754.437616, 194.111319)" fill="none" stroke-linejoin="round" d="M 13.758901 -78.024544 C 13.758901 -78.024544 -4.746638 26.935911 -4.746638 26.935911 C -4.746638 26.935911 -13.759212 78.024568 -13.759212 78.024568 " stroke="#ff5757" stroke-width="3" stroke-opacity="1" stroke-miterlimit="4"/><path stroke-linecap="round" transform="matrix(0.748087, 0, 0, 0.748087, 764.791072, 195.763853)" fill="none" stroke-linejoin="round" d="M 27.598974 -75.816039 C 27.598974 -75.816039 -8.822058 24.241283 -8.822058 24.241283 C -8.822058 24.241283 -27.599124 75.815554 -27.599124 75.815554 " stroke="#ff5757" stroke-width="3" stroke-opacity="1" stroke-miterlimit="4"/><path stroke-linecap="round" transform="matrix(0.748087, 0, 0, 0.748087, 775.078023, 198.911787)" fill="none" stroke-linejoin="round" d="M 41.350409 -71.606713 C 41.350409 -71.606713 -10.954893 18.978531 -10.954893 18.978531 C -10.954893 18.978531 -41.344916 71.607575 -41.344916 71.607575 " stroke="#ff5757" stroke-width="3" stroke-opacity="1" stroke-miterlimit="4"/><path stroke-linecap="round" transform="matrix(0.748087, 0, 0, 0.748087, 784.527855, 204.357139)" fill="none" stroke-linejoin="round" d="M -53.976914 64.328537 C -53.976914 64.328537 53.975548 -64.327781 53.975548 -64.327781 " stroke="#ff5757" stroke-width="3" stroke-opacity="1" stroke-miterlimit="4"/><path stroke-linecap="round" transform="matrix(0.748087, 0, 0, 0.748087, 789.614078, 214.33211)" fill="none" stroke-linejoin="round" d="M 60.77898 -50.994772 C 60.77898 -50.994772 12.906862 -10.835036 12.906862 -10.835036 C 12.906862 -10.835036 -60.781111 50.994562 -60.781111 50.994562 " stroke="#ff5757" stroke-width="3" stroke-opacity="1" stroke-miterlimit="4"/><path stroke-linecap="round" transform="matrix(0.748087, 0, 0, 0.748087, 733.853993, 194.111319)" fill="none" stroke-linejoin="round" d="M -13.757084 -78.024544 C -13.757084 -78.024544 4.748455 26.935911 4.748455 26.935911 C 4.748455 26.935911 13.755807 78.024568 13.755807 78.024568 " stroke="#ff5757" stroke-width="3" stroke-opacity="1" stroke-miterlimit="4"/><path stroke-linecap="round" transform="matrix(0.748087, 0, 0, 0.748087, 723.505626, 195.763853)" fill="none" stroke-linejoin="round" d="M -27.588294 -75.816039 C -27.588294 -75.816039 8.811852 24.241283 8.811852 24.241283 C 8.811852 24.241283 27.588918 75.815554 27.588918 75.815554 " stroke="#ff5757" stroke-width="3" stroke-opacity="1" stroke-miterlimit="4"/><path stroke-linecap="round" transform="matrix(0.748087, 0, 0, 0.748087, 713.218746, 198.911787)" fill="none" stroke-linejoin="round" d="M -41.339825 -71.606713 C -41.339825 -71.606713 10.960255 18.978531 10.960255 18.978531 C 10.960255 18.978531 41.339835 71.607575 41.339835 71.607575 " stroke="#ff5757" stroke-width="3" stroke-opacity="1" stroke-miterlimit="4"/><path stroke-linecap="round" transform="matrix(0.748087, 0, 0, 0.748087, 703.769611, 204.357139)" fill="none" stroke-linejoin="round" d="M 53.976125 64.328537 C 53.976125 64.328537 -53.976338 -64.327781 -53.976338 -64.327781 " stroke="#ff5757" stroke-width="3" stroke-opacity="1" stroke-miterlimit="4"/><path stroke-linecap="round" transform="matrix(0.748087, 0, 0, 0.748087, 698.682619, 214.33211)" fill="none" stroke-linejoin="round" d="M -60.773521 -50.994772 C -60.773521 -50.994772 -12.901403 -10.835036 -12.901403 -10.835036 C -12.901403 -10.835036 60.770905 50.994562 60.770905 50.994562 " stroke="#ff5757" stroke-width="3" stroke-opacity="1" stroke-miterlimit="4"/><path fill="#000000" d="M 764.789062 248.332031 C 764.789062 243.34375 755.546875 239.300781 744.148438 239.300781 C 732.75 239.300781 723.507812 243.34375 723.507812 248.332031 C 723.507812 253.320312 732.75 257.363281 744.148438 257.363281 C 755.546875 257.363281 764.789062 253.320312 764.789062 248.332031 Z M 764.789062 248.332031 " fill-opacity="1" fill-rule="nonzero"/><path fill="#f4baa8" d="M 746.382812 590.835938 C 746.601562 584.910156 731.96875 582.9375 731.96875 582.9375 C 731.96875 582.9375 748.980469 585.023438 748.730469 578.765625 C 748.480469 572.507812 732.519531 571.171875 732.519531 571.171875 C 732.519531 571.171875 749.175781 572.617188 748.53125 566.816406 C 747.886719 561.015625 731.792969 558.039062 731.792969 558.039062 C 731.792969 558.039062 751.441406 561.894531 749.859375 553.8125 C 748.277344 545.726562 722.996094 541.828125 719.484375 547.300781 C 715.96875 552.773438 720.328125 556.371094 720.328125 556.371094 C 720.328125 556.371094 716.457031 558.355469 716.617188 563.109375 C 716.777344 567.863281 719.945312 569.136719 719.945312 569.136719 C 719.945312 569.136719 715.875 571.078125 716.355469 575.882812 C 716.832031 580.683594 721.925781 582.140625 721.925781 582.140625 C 721.925781 582.140625 716.453125 583.988281 718.894531 589.894531 C 721.335938 595.796875 746.167969 596.757812 746.382812 590.835938 Z M 746.382812 590.835938 " fill-opacity="1" fill-rule="nonzero"/><path stroke-linecap="round" transform="matrix(0.748087, 0, 0, 0.748087, 738.920009, 569.537919)" fill="none" stroke-linejoin="round" d="M -2.582224 33.743852 C 4.242477 33.404445 9.860976 31.707408 9.981074 28.469982 C 10.268265 20.548734 -9.292049 17.911799 -9.292049 17.911799 C -9.292049 17.911799 13.448252 20.700162 13.114066 12.335073 C 12.77988 3.969985 -8.561017 2.184179 -8.561017 2.184179 C -8.561017 2.184179 13.709334 4.116191 12.847762 -3.637964 C 11.986189 -11.39212 -9.527023 -15.37102 -9.527023 -15.37102 C -9.527023 -15.37102 16.737893 -10.217248 14.623124 -21.020849 C 13.087958 -28.853329 -5.06251 -33.740796 -16.738127 -33.067203 " stroke="#000000" stroke-width="3" stroke-opacity="1" stroke-miterlimit="4"/><path fill="#ffffff" d="M 1027.570312 530.230469 C 1016.132812 489.386719 1002.5625 454.226562 979.878906 455.390625 C 957.199219 456.554688 938.589844 487.503906 938.589844 487.503906 C 938.589844 487.503906 921.910156 488.503906 906.019531 532.894531 C 890.128906 577.28125 894 699.199219 894 699.199219 C 894 699.199219 1040.171875 699.199219 1040.171875 699.199219 C 1040.171875 699.199219 1039.007812 571.078125 1027.570312 530.230469 Z M 1027.570312 530.230469 " fill-opacity="1" fill-rule="nonzero"/><path fill="#f4baa8" d="M 1002.390625 428.199219 C 1002.390625 428.199219 1017.136719 460.210938 1017.136719 460.210938 C 1017.136719 460.210938 1011.367188 476.660156 990.585938 489.207031 C 969.804688 501.753906 953.371094 500.371094 953.371094 500.371094 C 953.371094 500.371094 945.039062 448.675781 945.039062 448.675781 C 945.039062 448.675781 1002.390625 428.199219 1002.390625 428.199219 Z M 1002.390625 428.199219 " fill-opacity="1" fill-rule="nonzero"/><path fill="#000000" d="M 950.417969 482.054688 C 950.417969 482.054688 950.417969 482.058594 950.417969 482.058594 C 950.417969 482.058594 961.511719 479.390625 979.6875 467.148438 C 997.855469 454.90625 1006.863281 437.914062 1006.863281 437.914062 C 1006.863281 437.914062 1002.390625 428.195312 1002.390625 428.195312 C 1002.390625 428.195312 945.035156 448.679688 945.035156 448.679688 C 945.035156 448.679688 950.417969 482.054688 950.417969 482.054688 Z M 950.417969 482.054688 " fill-opacity="1" fill-rule="nonzero"/><path fill="#ffffff" d="M 892.0625 786.628906 C 892.0625 786.628906 886.277344 756.191406 888.570312 690.667969 C 890.867188 625.144531 894.386719 571.636719 926.179688 526.273438 C 957.972656 480.910156 1003.726562 456.191406 1027.570312 457.523438 C 1051.414062 458.855469 1038.621094 491.1875 1038.621094 491.1875 C 1038.621094 491.1875 1046.761719 493.511719 1058.976562 527.824219 C 1071.1875 562.136719 1079.910156 786.628906 1079.910156 786.628906 C 1079.910156 786.628906 892.0625 786.628906 892.0625 786.628906 Z M 892.0625 786.628906 " fill-opacity="1" fill-rule="nonzero"/><path fill="#ece6dd" d="M 892.0625 786.632812 C 892.0625 786.632812 877.519531 778.78125 876.359375 744.753906 C 875.195312 710.734375 879.976562 674.242188 887.410156 667.988281 C 894.839844 661.734375 1056.066406 659.84375 1069.445312 670.894531 C 1082.820312 681.945312 1075.84375 749.304688 1066.535156 765.351562 C 1057.230469 781.394531 1046.414062 786.632812 1046.414062 786.632812 C 1046.414062 786.632812 892.0625 786.632812 892.0625 786.632812 Z M 892.0625 786.632812 " fill-opacity="1" fill-rule="nonzero"/><path fill="#ff5757" d="M 966.777344 581.394531 C 970.039062 583.5 972.917969 585.976562 975.03125 588.886719 C 984.460938 601.871094 982.652344 612.136719 976.152344 621.121094 C 974.175781 619.332031 969.992188 618.527344 968.445312 619.65625 C 966.898438 620.777344 966.367188 625.003906 967.460938 627.433594 C 956.90625 630.84375 946.582031 629.386719 937.152344 616.40625 C 935.035156 613.496094 933.570312 610 932.578125 606.242188 C 931.578125 610 930.113281 613.496094 928 616.40625 C 918.566406 629.386719 908.246094 630.84375 897.691406 627.433594 C 898.78125 625.003906 898.25 620.777344 896.707031 619.65625 C 896.007812 619.144531 894.765625 619.03125 893.429688 619.230469 C 897.921875 584.628906 906.792969 553.941406 926.179688 526.277344 C 931.414062 518.808594 937.027344 511.894531 942.875 505.566406 C 950.746094 509.605469 955.988281 516.867188 955.988281 530.28125 C 955.988281 533.875 955.109375 537.570312 953.707031 541.195312 C 956.71875 538.734375 959.960938 536.765625 963.382812 535.660156 C 978.652344 530.699219 987.855469 535.59375 994.390625 544.550781 C 992.082031 545.875 990.027344 549.605469 990.617188 551.425781 C 991.203125 553.242188 995.066406 555.054688 997.710938 554.765625 C 997.6875 565.855469 993.125 575.226562 977.855469 580.1875 C 974.433594 581.296875 970.652344 581.609375 966.777344 581.394531 Z M 966.777344 581.394531 " fill-opacity="1" fill-rule="nonzero"/><path fill="#000000" d="M 1077.121094 726.421875 C 1077.121094 726.421875 1077.121094 744.601562 1077.121094 744.601562 C 1077.121094 744.601562 1075.632812 744.667969 1072.921875 744.746094 C 1056.136719 745.210938 992.449219 746.089844 945.125 734.574219 C 890.164062 721.195312 877.023438 712.328125 877.023438 712.328125 C 877.023438 712.328125 876.976562 712.214844 876.976562 712.214844 C 877.519531 704.667969 878.332031 697.554688 879.371094 691.316406 C 879.371094 691.316406 879.5 691.230469 879.5 691.230469 C 879.5 691.230469 895.3125 703.695312 946.582031 716.59375 C 993.742188 728.445312 1064.570312 726.808594 1075.640625 726.46875 C 1076.609375 726.441406 1077.121094 726.421875 1077.121094 726.421875 Z M 1077.121094 726.421875 " fill-opacity="1" fill-rule="nonzero"/><path stroke-linecap="round" transform="matrix(0.748087, 0, 0, 0.748087, 916.578656, 702.122097)" fill="none" stroke-linejoin="round" d="M -9.305696 -5.625061 C -9.305696 -16.559204 -5.138817 -19.791407 -0.000709958 -19.791407 C 5.137397 -19.791407 9.309498 -16.559204 9.309498 -5.625061 C 9.309498 5.309081 -0.000709958 19.793947 -0.000709958 19.793947 C -0.000709958 19.793947 -9.305696 5.309081 -9.305696 -5.625061 Z M -9.305696 -5.625061 " stroke="#ff5757" stroke-width="3" stroke-opacity="1" stroke-miterlimit="4"/><path stroke-linecap="round" transform="matrix(0.748087, 0, 0, 0.748087, 931.256095, 711.054248)" fill="none" stroke-linejoin="round" d="M 1.678446 -8.850115 C 12.074758 -12.228525 16.44006 -9.267848 18.032665 -4.38038 C 19.620047 0.507088 17.82902 5.47288 7.432708 8.85129 C -2.963604 12.229699 -19.620678 7.853954 -19.620678 7.853954 C -19.620678 7.853954 -8.717866 -5.471706 1.678446 -8.850115 Z M 1.678446 -8.850115 " stroke="#ff5757" stroke-width="3" stroke-opacity="1" stroke-miterlimit="4"/><path stroke-linecap="round" transform="matrix(0.748087, 0, 0, 0.748087, 927.38696, 730.040719)" fill="none" stroke-linejoin="round" d="M 8.020138 -2.430284 C 14.447993 6.415197 12.980708 11.480201 8.824272 14.503538 C 4.662615 17.521654 -0.611255 17.354561 -7.039111 8.50908 C -13.461744 -0.331179 -14.448637 -17.526084 -14.448637 -17.526084 C -14.448637 -17.526084 1.597504 -11.275764 8.020138 -2.430284 Z M 8.020138 -2.430284 " stroke="#ff5757" stroke-width="3" stroke-opacity="1" stroke-miterlimit="4"/><path stroke-linecap="round" transform="matrix(0.748087, 0, 0, 0.748087, 905.770281, 730.040719)" fill="none" stroke-linejoin="round" d="M 7.037787 8.50908 C 0.609932 17.354561 -4.663938 17.526876 -8.820374 14.503538 C -12.982032 11.480201 -14.449317 6.415197 -8.021461 -2.430284 C -1.598828 -11.275764 14.447313 -17.526084 14.447313 -17.526084 C 14.447313 -17.526084 13.460421 -0.3364 7.037787 8.50908 Z M 7.037787 8.50908 " stroke="#ff5757" stroke-width="3" stroke-opacity="1" stroke-miterlimit="4"/><path stroke-linecap="round" transform="matrix(0.748087, 0, 0, 0.748087, 901.901145, 711.054248)" fill="none" stroke-linejoin="round" d="M -7.42881 8.85129 C -17.830344 5.47288 -19.621371 0.512309 -18.033988 -4.375158 C -16.441384 -9.267848 -12.076082 -12.228525 -1.67977 -8.850115 C 8.716542 -5.471706 19.619354 7.853954 19.619354 7.853954 C 19.619354 7.853954 2.967502 12.229699 -7.42881 8.85129 Z M -7.42881 8.85129 " stroke="#ff5757" stroke-width="3" stroke-opacity="1" stroke-miterlimit="4"/><path stroke-linecap="round" transform="matrix(0.748087, 0, 0, 0.748087, 958.849998, 555.960112)" fill="none" stroke-linejoin="round" d="M -91.862457 133.367353 C -87.867892 66.556298 -78.359261 9.81259 -43.671818 -39.683462 C -1.172781 -100.322523 59.988446 -133.365146 91.861418 -131.584562 " stroke="#000000" stroke-width="3" stroke-opacity="1" stroke-miterlimit="4"/><path stroke-linecap="round" transform="matrix(0.748087, 0, 0, 0.748087, 972.319301, 571.769463)" fill="none" stroke-linejoin="round" d="M 88.628475 -107.717397 C 88.628475 -107.717397 64.916947 -116.270465 21.770425 -101.112006 C -21.381319 -85.948324 -55.58837 -35.804786 -71.133233 11.61827 C -86.683316 59.041326 -88.625772 116.270647 -88.625772 116.270647 " stroke="#000000" stroke-width="3" stroke-opacity="1" stroke-miterlimit="4"/><path fill="#ff5757" d="M 944.707031 690.097656 C 944.707031 687.152344 948.996094 683.554688 948.996094 683.554688 C 948.996094 683.554688 953.285156 687.152344 953.285156 690.097656 C 953.285156 693.042969 951.363281 694.214844 948.996094 694.214844 C 946.625 694.214844 944.707031 693.042969 944.707031 690.097656 Z M 944.707031 690.097656 " fill-opacity="1" fill-rule="nonzero"/><path fill="#ff5757" d="M 941.449219 681.496094 C 944.246094 680.585938 948.996094 683.554688 948.996094 683.554688 C 948.996094 683.554688 946.898438 688.746094 944.097656 689.65625 C 941.296875 690.566406 939.585938 689.101562 938.855469 686.847656 C 938.125 684.597656 938.648438 682.40625 941.449219 681.496094 Z M 941.449219 681.496094 " fill-opacity="1" fill-rule="nonzero"/><path fill="#ff5757" d="M 948.621094 675.738281 C 950.351562 678.121094 948.996094 683.554688 948.996094 683.554688 C 948.996094 683.554688 943.410156 683.164062 941.679688 680.78125 C 939.949219 678.398438 940.8125 676.320312 942.730469 674.929688 C 944.644531 673.535156 946.890625 673.359375 948.621094 675.738281 Z M 948.621094 675.738281 " fill-opacity="1" fill-rule="nonzero"/><path fill="#ff5757" d="M 956.308594 680.78125 C 954.578125 683.164062 948.996094 683.554688 948.996094 683.554688 C 948.996094 683.554688 947.640625 678.121094 949.371094 675.742188 C 951.101562 673.359375 953.34375 673.535156 955.261719 674.929688 C 957.179688 676.320312 958.039062 678.398438 956.308594 680.78125 Z M 956.308594 680.78125 " fill-opacity="1" fill-rule="nonzero"/><path fill="#ff5757" d="M 953.894531 689.65625 C 951.09375 688.746094 948.996094 683.554688 948.996094 683.554688 C 948.996094 683.554688 953.746094 680.585938 956.542969 681.496094 C 959.34375 682.40625 959.867188 684.59375 959.136719 686.847656 C 958.402344 689.101562 956.691406 690.566406 953.894531 689.65625 Z M 953.894531 689.65625 " fill-opacity="1" fill-rule="nonzero"/><path fill="#ece6dd" d="M 947.015625 683.554688 C 947.015625 682.460938 947.902344 681.574219 948.996094 681.574219 C 950.089844 681.574219 950.976562 682.460938 950.976562 683.554688 C 950.976562 684.648438 950.089844 685.535156 948.996094 685.535156 C 947.902344 685.535156 947.015625 684.648438 947.015625 683.554688 Z M 947.015625 683.554688 " fill-opacity="1" fill-rule="nonzero"/><path fill="#ff5757" d="M 898.015625 773.050781 C 898.015625 770.109375 902.304688 766.511719 902.304688 766.511719 C 902.304688 766.511719 906.59375 770.109375 906.59375 773.050781 C 906.59375 775.996094 904.675781 777.171875 902.304688 777.171875 C 899.9375 777.171875 898.015625 775.996094 898.015625 773.050781 Z M 898.015625 773.050781 " fill-opacity="1" fill-rule="nonzero"/><path fill="#ff5757" d="M 894.757812 764.453125 C 897.558594 763.542969 902.304688 766.511719 902.304688 766.511719 C 902.304688 766.511719 900.210938 771.699219 897.410156 772.609375 C 894.609375 773.519531 892.898438 772.058594 892.167969 769.804688 C 891.433594 767.550781 891.957031 765.363281 894.757812 764.453125 Z M 894.757812 764.453125 " fill-opacity="1" fill-rule="nonzero"/><path fill="#ff5757" d="M 901.929688 758.695312 C 903.660156 761.078125 902.304688 766.507812 902.304688 766.507812 C 902.304688 766.507812 896.722656 766.121094 894.992188 763.738281 C 893.261719 761.355469 894.125 759.277344 896.039062 757.882812 C 897.957031 756.492188 900.199219 756.3125 901.929688 758.695312 Z M 901.929688 758.695312 " fill-opacity="1" fill-rule="nonzero"/><path fill="#ff5757" d="M 909.621094 763.738281 C 907.890625 766.121094 902.304688 766.511719 902.304688 766.511719 C 902.304688 766.511719 900.953125 761.078125 902.683594 758.695312 C 904.414062 756.3125 906.65625 756.492188 908.574219 757.886719 C 910.488281 759.277344 911.351562 761.355469 909.621094 763.738281 Z M 909.621094 763.738281 " fill-opacity="1" fill-rule="nonzero"/><path fill="#ff5757" d="M 907.203125 772.609375 C 904.402344 771.699219 902.304688 766.511719 902.304688 766.511719 C 902.304688 766.511719 907.054688 763.542969 909.851562 764.453125 C 912.652344 765.363281 913.175781 767.550781 912.445312 769.804688 C 911.714844 772.058594 910.003906 773.519531 907.203125 772.609375 Z M 907.203125 772.609375 " fill-opacity="1" fill-rule="nonzero"/><path fill="#ece6dd" d="M 900.328125 766.511719 C 900.328125 765.417969 901.214844 764.53125 902.304688 764.53125 C 903.398438 764.53125 904.285156 765.417969 904.285156 766.511719 C 904.285156 767.601562 903.398438 768.488281 902.304688 768.488281 C 901.214844 768.488281 900.328125 767.601562 900.328125 766.511719 Z M 900.328125 766.511719 " fill-opacity="1" fill-rule="nonzero"/><path fill="#ffffff" d="M 961.898438 786.632812 C 961.898438 786.632812 1106.421875 786.632812 1106.421875 786.632812 C 1106.421875 786.632812 1120.082031 766.273438 1109.910156 715.675781 C 1099.742188 665.078125 1092.730469 503.785156 1047.972656 494.480469 C 1003.21875 485.175781 978.375 516.195312 974.304688 566.210938 C 970.238281 616.226562 958.703125 728.472656 954.046875 753.769531 C 949.394531 779.070312 961.898438 786.632812 961.898438 786.632812 Z M 961.898438 786.632812 " fill-opacity="1" fill-rule="nonzero"/><path fill="#ff5757" d="M 1093.410156 598.210938 C 1087.597656 597.054688 1081.945312 593.402344 1076.574219 586.019531 C 1074.460938 583.113281 1072.996094 579.613281 1072.003906 575.859375 C 1071.011719 579.613281 1069.542969 583.113281 1067.433594 586.019531 C 1057.992188 599.007812 1047.667969 600.453125 1037.113281 597.054688 C 1038.207031 594.625 1037.683594 590.398438 1036.128906 589.269531 C 1034.585938 588.148438 1030.402344 588.953125 1028.421875 590.734375 C 1021.933594 581.753906 1020.113281 571.488281 1029.550781 558.5 C 1031.664062 555.59375 1034.542969 553.113281 1037.796875 551.007812 C 1033.921875 551.222656 1030.140625 550.914062 1026.726562 549.800781 C 1011.457031 544.839844 1006.890625 535.464844 1006.863281 524.378906 C 1009.515625 524.667969 1013.371094 522.855469 1013.964844 521.039062 C 1014.554688 519.21875 1012.5 515.488281 1010.183594 514.164062 C 1016.71875 505.207031 1025.921875 500.3125 1041.191406 505.273438 C 1044.613281 506.386719 1047.855469 508.355469 1050.867188 510.808594 C 1049.464844 507.183594 1048.597656 503.488281 1048.597656 499.894531 C 1048.597656 498.046875 1048.699219 496.316406 1048.890625 494.695312 C 1072.023438 500.65625 1084.914062 547.679688 1093.410156 598.210938 Z M 1093.410156 598.210938 " fill-opacity="1" fill-rule="nonzero"/><path fill="#ff5757" d="M 1006.707031 681.957031 C 1009.96875 684.0625 1012.84375 686.535156 1014.957031 689.445312 C 1024.390625 702.429688 1022.578125 712.695312 1016.078125 721.683594 C 1014.109375 719.890625 1009.925781 719.085938 1008.371094 720.214844 C 1006.828125 721.335938 1006.304688 725.5625 1007.394531 727.992188 C 996.839844 731.402344 986.519531 729.949219 977.078125 716.964844 C 974.964844 714.054688 973.5 710.558594 972.507812 706.808594 C 971.515625 710.558594 970.046875 714.054688 967.933594 716.964844 C 964.683594 721.4375 961.328125 724.535156 957.898438 726.542969 C 961.746094 695.621094 966.742188 648.058594 970.464844 608.972656 C 971.175781 609.492188 971.894531 609.8125 972.507812 609.8125 C 974.417969 609.8125 977.332031 606.707031 977.878906 604.097656 C 988.417969 607.550781 995.914062 614.789062 995.914062 630.84375 C 995.914062 634.4375 995.042969 638.132812 993.632812 641.753906 C 996.648438 639.304688 999.894531 637.328125 1003.320312 636.21875 C 1018.582031 631.257812 1027.785156 636.152344 1034.324219 645.113281 C 1032.011719 646.433594 1029.953125 650.164062 1030.542969 651.984375 C 1031.132812 653.804688 1034.992188 655.613281 1037.644531 655.328125 C 1037.617188 666.414062 1033.054688 675.789062 1017.785156 680.746094 C 1014.367188 681.855469 1010.585938 682.171875 1006.707031 681.957031 Z M 1006.707031 681.957031 " fill-opacity="1" fill-rule="nonzero"/><path fill="#ff5757" d="M 1106.421875 786.628906 C 1106.421875 786.628906 1057.453125 786.628906 1057.453125 786.628906 C 1058.480469 783.398438 1060.234375 780 1062.859375 776.382812 C 1064.972656 773.472656 1067.847656 771 1071.105469 768.890625 C 1067.230469 769.109375 1063.449219 768.792969 1060.035156 767.683594 C 1044.761719 762.714844 1040.199219 753.351562 1040.171875 742.265625 C 1042.824219 742.542969 1046.675781 740.738281 1047.265625 738.921875 C 1047.863281 737.101562 1045.808594 733.371094 1043.492188 732.046875 C 1050.027344 723.089844 1059.226562 718.195312 1074.496094 723.15625 C 1077.917969 724.261719 1081.160156 726.234375 1084.175781 728.691406 C 1082.773438 725.070312 1081.902344 721.371094 1081.902344 717.777344 C 1081.902344 701.726562 1089.398438 694.484375 1099.9375 691.035156 C 1100.484375 693.644531 1103.394531 696.75 1105.308594 696.75 C 1105.75 696.75 1106.242188 696.585938 1106.753906 696.296875 C 1107.804688 703.78125 1108.839844 710.34375 1109.910156 715.679688 C 1120.082031 766.277344 1106.421875 786.628906 1106.421875 786.628906 Z M 1106.421875 786.628906 " fill-opacity="1" fill-rule="nonzero"/><path stroke-linecap="round" transform="matrix(0.748087, 0, 0, 0.748087, 1001.009956, 619.474213)" fill="none" stroke-linejoin="round" d="M 62.777074 -167.084546 C 2.952591 -179.522525 -30.257125 -138.057375 -35.698088 -71.199325 C -41.133829 -4.341275 -56.558593 145.702936 -62.777582 179.523585 " stroke="#000000" stroke-width="3" stroke-opacity="1" stroke-miterlimit="4"/><path fill="#000000" d="M 930.878906 314.09375 C 911.300781 306.242188 889.773438 344.964844 888.035156 384.34375 C 886.292969 423.722656 900.890625 447.039062 912.515625 447.566406 C 924.140625 448.09375 927.679688 427.136719 934.902344 390.242188 C 942.125 353.351562 950.457031 321.945312 930.878906 314.09375 Z M 930.878906 314.09375 " fill-opacity="1" fill-rule="nonzero"/><path fill="#000000" d="M 1053.882812 381.039062 C 1053.882812 342.183594 1027.25 310.6875 994.394531 310.6875 C 961.539062 310.6875 934.902344 342.183594 934.902344 381.039062 C 934.902344 419.890625 961.539062 451.386719 994.394531 451.386719 C 1027.25 451.386719 1053.882812 419.890625 1053.882812 381.039062 Z M 1053.882812 381.039062 " fill-opacity="1" fill-rule="nonzero"/><path fill="#000000" d="M 1082.480469 362.714844 C 1082.480469 349.011719 1071.371094 337.902344 1057.667969 337.902344 C 1043.960938 337.902344 1032.851562 349.011719 1032.851562 362.714844 C 1032.851562 376.417969 1043.960938 387.527344 1057.667969 387.527344 C 1071.371094 387.527344 1082.480469 376.417969 1082.480469 362.714844 Z M 1082.480469 362.714844 " fill-opacity="1" fill-rule="nonzero"/><path fill="#f4baa8" d="M 905.160156 386.425781 C 905.949219 347.753906 934.113281 323.050781 967.25 321.882812 C 1000.386719 320.714844 1028.285156 349.09375 1029.558594 385.269531 C 1030.835938 421.445312 1001.988281 459.304688 957.742188 458.632812 C 913.496094 457.960938 904.367188 425.097656 905.160156 386.425781 Z M 905.160156 386.425781 " fill-opacity="1" fill-rule="nonzero"/><path fill="#f4baa8" d="M 1017.15625 398.203125 C 1019.417969 388.421875 1027.757812 381.996094 1035.785156 383.851562 C 1043.808594 385.707031 1048.480469 395.140625 1046.21875 404.921875 C 1043.957031 414.703125 1031.417969 421.558594 1023.394531 419.703125 C 1015.367188 417.847656 1014.894531 407.984375 1017.15625 398.203125 Z M 1017.15625 398.203125 " fill-opacity="1" fill-rule="nonzero"/><path stroke-linecap="round" transform="matrix(0.748087, 0, 0, 0.748087, 1030.404554, 396.105204)" fill="none" stroke-linejoin="round" d="M 11.599559 -3.534706 C 11.599559 -3.534706 7.171597 -9.570937 -0.58778 -6.281295 C -8.347157 -2.991654 -11.600247 9.566423 -11.600247 9.566423 " stroke="#000000" stroke-width="3" stroke-opacity="1" stroke-miterlimit="4"/><path stroke-linecap="round" transform="matrix(0.748087, 0, 0, 0.748087, 939.527719, 392.880939)" fill="none" stroke-linejoin="round" d="M 3.581553 -20.121747 C 3.581553 -20.121747 -2.219704 -8.237264 -2.898519 2.890079 C -3.577334 14.017423 3.581553 20.121535 3.581553 20.121535 " stroke="#000000" stroke-width="3" stroke-opacity="1" stroke-miterlimit="4"/><path fill="#ece6dd" d="M 972.042969 420.996094 C 968.878906 417.324219 924.738281 413.925781 920.828125 416.964844 C 916.921875 420.007812 924.871094 438.894531 943.289062 439.835938 C 961.707031 440.78125 975.210938 424.667969 972.042969 420.996094 Z M 972.042969 420.996094 " fill-opacity="1" fill-rule="nonzero"/><path fill="#000000" d="M 960.335938 359.917969 C 963.25 358.875 974.148438 361.4375 979.585938 365.085938 C 985.023438 368.730469 988.363281 373.15625 987.003906 374.9375 C 985.648438 376.714844 979.867188 370.046875 971.601562 368.332031 C 963.339844 366.613281 957.59375 367.019531 956.164062 365.535156 C 954.734375 364.054688 957.421875 360.957031 960.335938 359.917969 Z M 960.335938 359.917969 " fill-opacity="1" fill-rule="nonzero"/><path fill="#000000" d="M 934.152344 357.828125 C 931.753906 356.878906 923.828125 357.972656 919.199219 360.867188 C 914.566406 363.761719 911.660156 367.359375 912.746094 368.878906 C 913.828125 370.398438 918.828125 364.996094 925.765625 363.789062 C 932.699219 362.582031 936.246094 363.820312 937.476562 362.625 C 938.710938 361.425781 936.554688 358.773438 934.152344 357.828125 Z M 934.152344 357.828125 " fill-opacity="1" fill-rule="nonzero"/><path fill="#000000" d="M 923.496094 314.964844 C 909.554688 328.050781 923.804688 345.5 951.429688 350.734375 C 979.054688 355.96875 995.992188 364.863281 999.734375 383.53125 C 1003.480469 402.203125 991.960938 452.785156 1004.546875 455.128906 C 1017.136719 457.472656 1036.179688 414.074219 1036.703125 375.988281 C 1037.230469 337.898438 1021.21875 319.8125 995.964844 310.714844 C 970.710938 301.613281 937.4375 301.878906 923.496094 314.964844 Z M 923.496094 314.964844 " fill-opacity="1" fill-rule="nonzero"/><path fill="#000000" d="M 975.511719 383.234375 C 975.378906 386.886719 972.316406 389.738281 968.664062 389.605469 C 965.015625 389.472656 962.164062 386.410156 962.296875 382.757812 C 962.429688 379.109375 965.492188 376.257812 969.140625 376.390625 C 972.792969 376.519531 975.644531 379.585938 975.511719 383.234375 Z M 975.511719 383.234375 " fill-opacity="1" fill-rule="nonzero"/><path fill="#000000" d="M 928.160156 383.132812 C 928.027344 386.78125 924.964844 389.632812 921.3125 389.5 C 917.664062 389.371094 914.8125 386.304688 914.945312 382.65625 C 915.078125 379.003906 918.140625 376.152344 921.789062 376.285156 C 925.441406 376.417969 928.292969 379.480469 928.160156 383.132812 Z M 928.160156 383.132812 " fill-opacity="1" fill-rule="nonzero"/><path fill="#000000" d="M 927.917969 382.996094 C 927.917969 383.847656 924.980469 387.609375 921.355469 387.609375 C 917.734375 387.609375 914.796875 383.847656 914.796875 382.996094 C 914.796875 382.144531 917.734375 384.222656 921.355469 384.222656 C 924.980469 384.222656 927.917969 382.144531 927.917969 382.996094 Z M 927.917969 382.996094 " fill-opacity="1" fill-rule="nonzero"/><path fill="#000000" d="M 975.277344 382.996094 C 975.277344 383.847656 972.339844 387.609375 968.71875 387.609375 C 965.09375 387.609375 962.15625 383.847656 962.15625 382.996094 C 962.15625 382.144531 965.09375 384.222656 968.71875 384.222656 C 972.339844 384.222656 975.277344 382.144531 975.277344 382.996094 Z M 975.277344 382.996094 " fill-opacity="1" fill-rule="nonzero"/></svg>